<mxfile host="app.diagrams.net" modified="2021-10-08T10:52:36.879Z" agent="5.0 (Windows NT 10.0; Win64; x64) AppleWebKit/537.36 (KHTML, like Gecko) Chrome/94.0.4606.71 Safari/537.36" etag="n-gKyf-F2EGaOoiznuDB" version="15.4.3" type="github">
  <diagram id="C5RBs43oDa-KdzZeNtuy" name="Page-1">
    <mxGraphModel dx="1040" dy="569" grid="1" gridSize="10" guides="1" tooltips="1" connect="1" arrows="1" fold="1" page="1" pageScale="1" pageWidth="827" pageHeight="1169" math="0" shadow="0">
      <root>
        <mxCell id="WIyWlLk6GJQsqaUBKTNV-0" />
        <mxCell id="WIyWlLk6GJQsqaUBKTNV-1" parent="WIyWlLk6GJQsqaUBKTNV-0" />
        <mxCell id="O2UF7IChX4cqMfmPYLJX-12" value="" style="edgeStyle=orthogonalEdgeStyle;shape=flexArrow;rounded=0;orthogonalLoop=1;jettySize=auto;html=1;fontSize=21;" edge="1" parent="WIyWlLk6GJQsqaUBKTNV-1" source="O2UF7IChX4cqMfmPYLJX-0" target="O2UF7IChX4cqMfmPYLJX-11">
          <mxGeometry relative="1" as="geometry" />
        </mxCell>
        <mxCell id="O2UF7IChX4cqMfmPYLJX-0" value="Start" style="ellipse;whiteSpace=wrap;html=1;fontSize=21;" vertex="1" parent="WIyWlLk6GJQsqaUBKTNV-1">
          <mxGeometry x="294" y="60" width="126" height="60" as="geometry" />
        </mxCell>
        <mxCell id="O2UF7IChX4cqMfmPYLJX-20" value="" style="edgeStyle=orthogonalEdgeStyle;shape=flexArrow;rounded=0;orthogonalLoop=1;jettySize=auto;html=1;fontSize=21;" edge="1" parent="WIyWlLk6GJQsqaUBKTNV-1" source="O2UF7IChX4cqMfmPYLJX-11" target="O2UF7IChX4cqMfmPYLJX-19">
          <mxGeometry relative="1" as="geometry" />
        </mxCell>
        <mxCell id="O2UF7IChX4cqMfmPYLJX-11" value="User should install the application on smartphone" style="whiteSpace=wrap;html=1;fontSize=21;" vertex="1" parent="WIyWlLk6GJQsqaUBKTNV-1">
          <mxGeometry x="228.5" y="170" width="257" height="90" as="geometry" />
        </mxCell>
        <mxCell id="O2UF7IChX4cqMfmPYLJX-22" value="" style="edgeStyle=orthogonalEdgeStyle;shape=flexArrow;rounded=0;orthogonalLoop=1;jettySize=auto;html=1;fontSize=21;" edge="1" parent="WIyWlLk6GJQsqaUBKTNV-1" source="O2UF7IChX4cqMfmPYLJX-19" target="O2UF7IChX4cqMfmPYLJX-21">
          <mxGeometry relative="1" as="geometry" />
        </mxCell>
        <mxCell id="O2UF7IChX4cqMfmPYLJX-24" value="" style="edgeStyle=orthogonalEdgeStyle;shape=flexArrow;rounded=0;orthogonalLoop=1;jettySize=auto;html=1;fontSize=21;" edge="1" parent="WIyWlLk6GJQsqaUBKTNV-1" source="O2UF7IChX4cqMfmPYLJX-19" target="O2UF7IChX4cqMfmPYLJX-23">
          <mxGeometry relative="1" as="geometry" />
        </mxCell>
        <mxCell id="O2UF7IChX4cqMfmPYLJX-19" value="Bluetooth is ON?" style="rhombus;whiteSpace=wrap;html=1;fontSize=21;" vertex="1" parent="WIyWlLk6GJQsqaUBKTNV-1">
          <mxGeometry x="256" y="310" width="202" height="120" as="geometry" />
        </mxCell>
        <mxCell id="O2UF7IChX4cqMfmPYLJX-21" value="Continue" style="whiteSpace=wrap;html=1;fontSize=21;" vertex="1" parent="WIyWlLk6GJQsqaUBKTNV-1">
          <mxGeometry x="297" y="480" width="120" height="60" as="geometry" />
        </mxCell>
        <mxCell id="O2UF7IChX4cqMfmPYLJX-23" value="Notification appears so user can turn on the Bluetooth" style="whiteSpace=wrap;html=1;fontSize=21;" vertex="1" parent="WIyWlLk6GJQsqaUBKTNV-1">
          <mxGeometry x="579" y="330" width="201" height="80" as="geometry" />
        </mxCell>
        <mxCell id="O2UF7IChX4cqMfmPYLJX-25" value="&lt;span style=&quot;font-weight: normal&quot;&gt;&lt;font style=&quot;font-size: 18px&quot;&gt;NO&lt;/font&gt;&lt;/span&gt;" style="text;strokeColor=none;fillColor=none;html=1;fontSize=24;fontStyle=1;verticalAlign=middle;align=center;" vertex="1" parent="WIyWlLk6GJQsqaUBKTNV-1">
          <mxGeometry x="485.5" y="330" width="60" height="30" as="geometry" />
        </mxCell>
        <mxCell id="O2UF7IChX4cqMfmPYLJX-26" value="&lt;span style=&quot;font-weight: normal&quot;&gt;&lt;font style=&quot;font-size: 18px&quot;&gt;YES&lt;/font&gt;&lt;/span&gt;" style="text;strokeColor=none;fillColor=none;html=1;fontSize=24;fontStyle=1;verticalAlign=middle;align=center;" vertex="1" parent="WIyWlLk6GJQsqaUBKTNV-1">
          <mxGeometry x="250" y="420" width="150" height="40" as="geometry" />
        </mxCell>
      </root>
    </mxGraphModel>
  </diagram>
</mxfile>
